<svg width="24" height="24" viewBox="0 0 24 24" fill="none" xmlns="http://www.w3.org/2000/svg">
  <path
    d="M12 22C13.1 22 14 21.1 14 20H10C10 21.1 10.9 22 12 22ZM18 16V11C18 7.93 16.36 5.36 13.5 4.68V4C13.5 3.17 12.83 2.5 12 2.5C11.17 2.5 10.5 3.17 10.5 4V4.68C7.63 5.36 6 7.92 6 11V16L4 18V19H20V18L18 16Z"
    fill="#606060"
  />
  <circle cx="19" cy="5" r="5" fill="#FF0000" />
  <path
    d="M19.6357 7H19.0908V3.3877L17.998 3.78906V3.29688L19.5508 2.71387H19.6357V7Z"
    fill="white"
  />
</svg>
